<?xml version="1.0" standalone="no"?>
<!DOCTYPE svg PUBLIC "-//W3C//DTD SVG 20010904//EN"
 "http://www.w3.org/TR/2001/REC-SVG-20010904/DTD/svg10.dtd">
<svg version="1.0" xmlns="http://www.w3.org/2000/svg"
 width="700.000000pt" height="700.000000pt" viewBox="0 0 700.000000 700.000000"
 preserveAspectRatio="xMidYMid meet">
<metadata>
Created by potrace 1.11, written by Peter Selinger 2001-2013
</metadata>
<g transform="translate(0.000000,700.000000) scale(0.100000,-0.100000)"
fill="#000000" stroke="none">
<path d="M3001 6508 c-5 -13 -349 -1049 -766 -2303 -416 -1254 -759 -2287
-762 -2295 -4 -8 -7 -17 -8 -20 0 -3 -119 -359 -263 -791 -144 -432 -262 -791
-262 -797 0 -9 125 -12 483 -12 l484 0 32 88 c86 232 102 274 136 367 20 55
64 156 97 225 33 69 75 157 93 196 82 178 364 586 486 704 157 152 306 267
426 329 65 33 217 88 258 94 22 3 70 11 107 17 37 5 80 8 95 6 16 -3 64 -8
108 -11 55 -5 108 -18 170 -42 50 -19 99 -37 110 -40 49 -15 238 -154 328
-242 116 -113 279 -330 356 -476 30 -55 69 -127 86 -160 30 -55 76 -165 168
-400 19 -49 60 -180 91 -290 31 -110 68 -237 82 -282 l25 -83 389 0 390 0 0
74 0 74 66 23 c36 13 66 29 65 34 -1 6 -411 1243 -912 2750 -501 1507 -934
2808 -961 2890 -27 83 -53 159 -58 170 -4 11 -23 66 -40 123 l-33 102 -529 0
-528 0 -9 -22z m1792 -3087 c515 -1550 937 -2822 937 -2828 0 -6 -64 -10 -175
-10 l-175 0 -9 31 c-5 17 -32 109 -60 204 -28 94 -78 241 -112 325 -33 83 -70
177 -82 207 -12 30 -24 60 -28 65 -4 6 -22 39 -41 75 -19 36 -59 110 -88 165
-29 55 -100 165 -158 245 -216 300 -478 521 -732 618 -149 56 -166 62 -220 67
-25 3 -58 7 -75 10 -37 5 -156 18 -170 17 -5 0 -73 -9 -150 -21 -386 -57 -755
-302 -1081 -716 -100 -126 -225 -312 -255 -379 -7 -14 -16 -26 -20 -26 -7 0
-157 -298 -229 -455 -18 -38 -56 -135 -86 -215 -29 -80 -59 -161 -67 -180
l-15 -35 -181 -1 c-100 0 -181 1 -181 2 0 2 176 534 392 1181 215 648 636
1914 935 2813 299 899 545 1640 548 1647 3 9 83 12 322 12 l318 1 938 -2819z"/>
</g>
</svg>
