<?xml version="1.0" encoding="UTF-8" standalone="no"?>
<svg
   xmlns:dc="http://purl.org/dc/elements/1.1/"
   xmlns:cc="http://creativecommons.org/ns#"
   xmlns:rdf="http://www.w3.org/1999/02/22-rdf-syntax-ns#"
   xmlns:svg="http://www.w3.org/2000/svg"
   xmlns:xlink="http://www.w3.org/1999/xlink"
   xmlns="http://www.w3.org/2000/svg"
   version="1.1"
   id="svg3004"
   height="1174.8054"
   width="789.90216">
  <defs>
  </defs>
  <g id="g5832"
     transform="translate(-20.122677,-742.79187)"
     style="display:inline">

    <path
       d="m 215.33013,1194.1571 0.86555,0.1526 3.10183,4.4539
          -1.35757,0.9506 -1.83439,-2.6439 -2.06885,11.7331
          -1.63494,-0.2883 2.06886,-11.733 -2.64726,1.8536
          -0.95057,-1.3576 4.45734,-3.121" />

    <path
       d="m 200.98766,1276.7986 -0.86555,-0.1526 -3.12107,-4.4574
          1.35757,-0.9505 1.85362,2.6472 2.06886,-11.7331
          1.63493,0.2883 -2.06885,11.7331 2.62802,-1.857
          0.95057,1.3575 -4.4381,3.1245" />

    <path
       d="m 125.04395,1272.9377 0.15262,-0.8656 4.44603,-3.1131
          0.95058,1.3576 -2.63594,1.8457 11.72344,2.0671
          -0.28828,1.635 -11.72345,-2.0672 1.84571,2.6359
          -1.35757,0.9506 -3.11314,-4.446" />

    <path
       d="m 272.54265,1298.6653 -0.15262,0.8656 -4.44603,3.1131
          -0.95058,-1.3576 2.63594,-1.8457 -11.72344,-2.0671
          0.28828,-1.635 11.72345,2.0672 -1.84571,-2.6359
          1.35757,-0.9506 3.11314,4.446" />
  </g>
</svg>
