<?xml version="1.0" encoding="UTF-8" standalone="no"?>
<svg xmlns="http://www.w3.org/2000/svg" version="1.1">
    <defs>
        <symbol id="label_up">
            <path d="m 20,13 0.8789,-2e-5 3.82811,3.847609
                     -1.17187,1.171898 -2.26563,-2.285196
                     10e-6,11.9141 -1.66017,-1.6e-5 2e-5,-11.914003
                     -2.28517,2.285131 -1.17187,-1.17191
                     3.84767,-3.847593" />

        </symbol>
        <symbol id="label_down">
            <path d="m 20,28 -0.8789,2e-5 -3.84767,-3.84771
                     1.17189,-1.1718 2.28514,2.28511 0,-11.91411
                     1.66015,2e-5 1e-5,11.9141 2.26563,-2.28514
                     1.17186,1.17181 -3.82811,3.8477" />
        </symbol>
        <symbol id="label_left">
            <path d="m 12,20 -8e-6,-0.87895 3.837901,-3.83785
                     1.171883,1.17191 -2.275392,2.27538
                     11.904283,-5e-5 1.4e-5,1.66022 -11.90431,-4e-5
                     2.275389,2.27535 -1.171876,1.17189
                     -3.837884,-3.83786" />
        </symbol>
        <symbol id="label_right">
            <path d="m 28,20 1e-5,0.87895 -3.8379,3.83785
                     -1.17189,-1.17191 2.2754,-2.27538 -11.90429,5e-5
                     -1e-5,-1.66022 11.90431,4e-5 -2.27539,-2.27535
                     1.17188,-1.17189 3.83788,3.83786" />
        </symbol>
    </defs>
</svg>
